<svg width="53" height="50" viewBox="0 0 53 50" fill="none" xmlns="http://www.w3.org/2000/svg">
<rect x="0.5" width="52" height="50" rx="10" fill="#25313A"/>
<path fill-rule="evenodd" clip-rule="evenodd" d="M21.8125 30.625H19.7856L19.1444 32.5487L18.8481 33.4375H15.25V27.85C16.18 28.0919 17.5244 28.2812 19.4688 28.2812C19.8417 28.2812 20.1994 28.1331 20.4631 27.8694C20.7268 27.6056 20.875 27.2479 20.875 26.875C20.875 26.502 20.7268 26.1443 20.4631 25.8806C20.1994 25.6169 19.8417 25.4687 19.4688 25.4687C17.4569 25.4687 16.315 25.2437 15.7225 25.0619C15.5925 25.022 15.4649 24.975 15.34 24.9212C15.4836 24.3028 15.7988 23.7374 16.2494 23.29C16.3869 23.1525 16.5206 23.01 16.6506 22.8625C19.51 23.6744 23.0312 24.0625 26.5 24.0625C29.9688 24.0625 33.49 23.6744 36.3494 22.8625C36.4781 23.0112 36.6119 23.1537 36.7506 23.29C37.2025 23.7437 37.5156 24.31 37.66 24.9212C37.5775 24.9612 37.45 25.0081 37.2775 25.0619C36.685 25.2437 35.5431 25.4687 33.5312 25.4687C33.1583 25.4687 32.8006 25.6169 32.5369 25.8806C32.2732 26.1443 32.125 26.502 32.125 26.875C32.125 27.2479 32.2732 27.6056 32.5369 27.8694C32.8006 28.1331 33.1583 28.2812 33.5312 28.2812C35.4756 28.2812 36.82 28.0919 37.75 27.85V33.4375H34.1519L33.8556 32.5487L33.2144 30.625H21.8125ZM34.795 20.365C32.395 20.9462 29.47 21.25 26.5 21.25C23.53 21.25 20.605 20.9462 18.205 20.365C18.2625 20.225 18.3175 20.0837 18.37 19.9412L19.21 17.5844C19.5475 16.6375 20.2788 16.0731 21.01 15.9662C24.6511 15.4486 28.3471 15.4486 31.9881 15.9662C32.7231 16.0731 33.4506 16.6375 33.7881 17.5844L34.6319 19.9412C34.6819 20.0837 34.7362 20.225 34.795 20.365ZM31.6975 34.9675L31.1875 33.4375H21.8125L21.3025 34.9675C21.1781 35.341 20.9393 35.6659 20.6199 35.8961C20.3005 36.1263 19.9168 36.2501 19.5231 36.25H14.3125C13.8152 36.25 13.3383 36.0524 12.9867 35.7008C12.635 35.3492 12.4375 34.8723 12.4375 34.375V25.7031C12.4375 24.0531 13.0938 22.4687 14.26 21.3025C14.5622 21.0012 14.8324 20.6694 15.0662 20.3125H13.8438C13.4708 20.3125 13.1131 20.1643 12.8494 19.9006C12.5857 19.6369 12.4375 19.2792 12.4375 18.9062C12.4375 18.5333 12.5857 18.1756 12.8494 17.9119C13.1131 17.6481 13.4708 17.5 13.8438 17.5H16.255L16.5625 16.6375C17.2056 14.8375 18.715 13.4575 20.6069 13.1837C24.5159 12.6272 28.4841 12.6272 32.3931 13.1837C34.285 13.4575 35.7944 14.8375 36.4375 16.6394L36.745 17.5H39.1562C39.5292 17.5 39.8869 17.6481 40.1506 17.9119C40.4143 18.1756 40.5625 18.5333 40.5625 18.9062C40.5625 19.2792 40.4143 19.6369 40.1506 19.9006C39.8869 20.1643 39.5292 20.3125 39.1562 20.3125H37.9356C38.1694 20.67 38.4375 21 38.74 21.3025C39.9069 22.4697 40.5624 24.0526 40.5625 25.7031V34.375C40.5625 34.8723 40.365 35.3492 40.0133 35.7008C39.6617 36.0524 39.1848 36.25 38.6875 36.25H33.475C33.0816 36.2497 32.6983 36.1257 32.3793 35.8955C32.0603 35.6654 31.8218 35.3407 31.6975 34.9675Z" fill="#F8F8F8"/>
</svg>
