<svg width="53" height="50" viewBox="0 0 53 50" fill="none" xmlns="http://www.w3.org/2000/svg">
<rect x="0.5" width="52" height="50" rx="10" fill="#25313A"/>
<path d="M25.2812 36.25V33.5625C24.1771 33.3125 23.2242 32.8333 22.4225 32.125C21.6208 31.4167 21.0321 30.4167 20.6562 29.125L22.9688 28.1875C23.2813 29.1875 23.745 29.9479 24.36 30.4688C24.975 30.9896 25.7821 31.25 26.7812 31.25C27.6354 31.25 28.3596 31.0575 28.9537 30.6725C29.5479 30.2875 29.8446 29.6883 29.8437 28.875C29.8437 28.1458 29.6146 27.5679 29.1562 27.1412C28.6979 26.7146 27.6354 26.23 25.9687 25.6875C24.1771 25.125 22.9479 24.4533 22.2813 23.6725C21.6146 22.8917 21.2812 21.9383 21.2812 20.8125C21.2812 19.4583 21.7188 18.4062 22.5938 17.6562C23.4687 16.9062 24.3646 16.4792 25.2812 16.375V13.75H27.7812V16.375C28.8229 16.5417 29.6825 16.9221 30.36 17.5162C31.0375 18.1104 31.5321 18.8342 31.8437 19.6875L29.5312 20.6875C29.2812 20.0208 28.9271 19.5208 28.4687 19.1875C28.0104 18.8542 27.3854 18.6875 26.5937 18.6875C25.6771 18.6875 24.9792 18.8908 24.5 19.2975C24.0208 19.7042 23.7812 20.2092 23.7812 20.8125C23.7812 21.5 24.0937 22.0417 24.7187 22.4375C25.3437 22.8333 26.4271 23.25 27.9687 23.6875C29.4062 24.1042 30.495 24.7658 31.235 25.6725C31.975 26.5792 32.3446 27.6258 32.3437 28.8125C32.3437 30.2917 31.9062 31.4167 31.0312 32.1875C30.1562 32.9583 29.0729 33.4375 27.7812 33.625V36.25H25.2812Z" fill="#F8F8F8"/>
</svg>
