<svg width="31" height="31" viewBox="0 0 31 31" fill="none" xmlns="http://www.w3.org/2000/svg">
<path d="M15.5 11.8833C14.7847 11.8833 14.0855 12.0954 13.4907 12.4928C12.8959 12.8902 12.4324 13.4551 12.1587 14.1159C11.8849 14.7768 11.8133 15.504 11.9528 16.2055C12.0924 16.9071 12.4369 17.5515 12.9426 18.0573C13.4485 18.5631 14.0929 18.9076 14.7944 19.0471C15.496 19.1867 16.2232 19.1151 16.8841 18.8413C17.5449 18.5676 18.1098 18.104 18.5072 17.5093C18.9046 16.9145 19.1167 16.2153 19.1167 15.5C19.1167 15.025 19.0231 14.5547 18.8414 14.1159C18.6596 13.6771 18.3932 13.2784 18.0574 12.9426C17.7215 12.6068 17.3229 12.3403 16.8841 12.1586C16.4453 11.9768 15.975 11.8833 15.5 11.8833ZM29.9813 8.31038C29.9736 7.18419 29.7662 6.06829 29.3688 5.01454C29.0761 4.24346 28.6232 3.54322 28.04 2.96002C27.4568 2.37682 26.7565 1.92392 25.9854 1.63121C24.9317 1.23376 23.8158 1.02638 22.6896 1.01871C20.8084 0.916626 20.2542 0.916626 15.5 0.916626C10.7459 0.916626 10.1917 0.916626 8.31044 1.01871C7.18425 1.02638 6.06835 1.23376 5.0146 1.63121C4.24352 1.92392 3.54328 2.37682 2.96008 2.96002C2.37688 3.54322 1.92398 4.24346 1.63127 5.01454C1.23382 6.06829 1.02644 7.18419 1.01877 8.31038C0.916687 10.1916 0.916687 10.7458 0.916687 15.5C0.916687 20.2541 0.916687 20.8083 1.01877 22.6895C1.03447 23.8197 1.24157 24.939 1.63127 26C1.92269 26.7675 2.37521 27.4637 2.95835 28.0416C3.53905 28.6283 4.2408 29.0812 5.0146 29.3687C6.06835 29.7662 7.18425 29.9735 8.31044 29.9812C10.1917 30.0833 10.7459 30.0833 15.5 30.0833C20.2542 30.0833 20.8084 30.0833 22.6896 29.9812C23.8158 29.9735 24.9317 29.7662 25.9854 29.3687C26.7592 29.0812 27.461 28.6283 28.0417 28.0416C28.6248 27.4637 29.0774 26.7675 29.3688 26C29.7658 24.941 29.9732 23.8204 29.9813 22.6895C30.0834 20.8083 30.0834 20.2541 30.0834 15.5C30.0834 10.7458 30.0834 10.1916 29.9813 8.31038ZM26.2771 19.977C26.2303 20.877 26.0382 21.7634 25.7084 22.602C25.4252 23.3016 25.0044 23.9371 24.4707 24.4707C23.9371 25.0043 23.3016 25.4252 22.6021 25.7083C21.7556 26.0198 20.8642 26.1922 19.9625 26.2187H11.0375C10.1359 26.1922 9.24448 26.0198 8.39794 25.7083C7.67475 25.4395 7.02167 25.0108 6.48752 24.4541C5.95912 23.9309 5.55104 23.2989 5.29169 22.602C4.97896 21.7564 4.81132 20.864 4.79585 19.9625V11.0375C4.81132 10.136 4.97896 9.24354 5.29169 8.39788C5.56043 7.67469 5.98917 7.02161 6.54585 6.48746C7.07134 5.96191 7.7027 5.55426 8.39794 5.29163C9.24448 4.98013 10.1359 4.80777 11.0375 4.78121H19.9625C20.8642 4.80777 21.7556 4.98013 22.6021 5.29163C23.3253 5.56037 23.9784 5.98911 24.5125 6.54579C25.0409 7.06897 25.449 7.70098 25.7084 8.39788C26.0198 9.24442 26.1922 10.1358 26.2188 11.0375V15.5C26.2188 18.5041 26.3209 18.8104 26.2771 19.9625V19.977ZM23.9438 9.12704C23.7701 8.65598 23.4964 8.22819 23.1414 7.87319C22.7864 7.51819 22.3586 7.24443 21.8875 7.07079C21.2407 6.84659 20.5595 6.73799 19.875 6.74996H11.125C10.4371 6.75668 9.75574 6.88505 9.11252 7.12913C8.64867 7.29487 8.22541 7.55746 7.87087 7.89942C7.51634 8.24138 7.23865 8.65489 7.05627 9.11246C6.84449 9.76195 6.74102 10.4419 6.75002 11.125V19.875C6.76448 20.5621 6.8926 21.2421 7.12919 21.8875C7.30282 22.3585 7.57658 22.7863 7.93158 23.1413C8.28658 23.4963 8.71437 23.7701 9.18544 23.9437C9.80766 24.1725 10.4624 24.3005 11.125 24.3229H19.875C20.563 24.3161 21.2443 24.1878 21.8875 23.9437C22.3586 23.7701 22.7864 23.4963 23.1414 23.1413C23.4964 22.7863 23.7701 22.3585 23.9438 21.8875C24.1878 21.2442 24.3162 20.5629 24.3229 19.875V11.125C24.3234 10.4363 24.1948 9.75372 23.9438 9.11246V9.12704ZM15.5 21.0708C14.7691 21.0708 14.0454 20.9266 13.3704 20.6465C12.6953 20.3663 12.0821 19.9557 11.566 19.4383C11.0499 18.9208 10.6409 18.3065 10.3625 17.6307C10.0842 16.9549 9.94185 16.2308 9.94377 15.5C9.94377 14.3975 10.2709 13.3199 10.8836 12.4035C11.4964 11.487 12.3673 10.773 13.3861 10.3518C14.4049 9.93059 15.5258 9.82112 16.6068 10.0373C17.6878 10.2534 18.6804 10.7854 19.4589 11.566C20.2374 12.3465 20.7669 13.3405 20.9802 14.4221C21.1935 15.5037 21.0811 16.6243 20.6572 17.6419C20.2333 18.6596 19.517 19.5287 18.599 20.139C17.6809 20.7494 16.6024 21.0737 15.5 21.0708ZM21.3334 11.0229C21.011 10.9888 20.7126 10.8365 20.4958 10.5955C20.279 10.3546 20.159 10.0418 20.159 9.71767C20.159 9.39349 20.279 9.08078 20.4958 8.83979C20.7126 8.5988 21.011 8.44658 21.3334 8.41246C21.6557 8.44658 21.9541 8.5988 22.1709 8.83979C22.3877 9.08078 22.5077 9.39349 22.5077 9.71767C22.5077 10.0418 22.3877 10.3546 22.1709 10.5955C21.9541 10.8365 21.6557 10.9888 21.3334 11.0229Z" fill="#F8F8F8"/>
</svg>
