<svg width="53" height="50" viewBox="0 0 53 50" fill="none" xmlns="http://www.w3.org/2000/svg">
<rect x="0.5" width="52" height="50" rx="10" fill="#25313A"/>
<path d="M38.6417 15.3658L38.642 15.366C39.4982 15.7219 40.0625 16.565 40.0625 17.5C40.0625 30.2417 32.2435 37.2979 27.3862 39.3215C26.8178 39.5575 26.1768 39.5576 25.6084 39.3217C19.534 36.7897 12.9375 28.9388 12.9375 17.5C12.9375 16.5654 13.5013 15.7226 14.3629 15.3664L14.3642 15.3658L25.6135 10.6786C25.6135 10.6786 25.6136 10.6786 25.6137 10.6785C25.8956 10.5616 26.1978 10.5015 26.5029 10.5015C26.8081 10.5015 27.1103 10.5616 27.3922 10.6785C27.3922 10.6786 27.3923 10.6786 27.3924 10.6786L38.6417 15.3658ZM26.0059 36.1505L26.0061 36.9574L26.7285 36.5981C32.3974 33.7788 37.1094 27.1748 37.3065 18.132L37.314 17.7908L36.999 17.6596L26.6923 13.3646L25.9998 13.0761L26 13.8263L26.0059 36.1505Z" fill="#F8F8F8" stroke="black"/>
</svg>
