<svg width="95" height="90" viewBox="0 0 95 90" fill="none" xmlns="http://www.w3.org/2000/svg">
<g filter="url(#filter0_d_9_334)">
<path d="M88.625 50.1896H82.75V51.5625L71.4348 53.3633L16.4213 54.45L6.375 51.5625L19.3588 45.7613C26.2913 42.6638 33.8994 41.0625 41.625 41.0625H47.5L50.4375 43.6875H59.25V35.8125C62.5616 35.8117 65.8277 36.5021 68.7881 37.8285C69.9425 38.3456 70.3978 39.3773 71.4348 40.0781C72.2103 40.6031 73.7701 41.4956 74.4662 42.1178L76.875 43.6875V33.1271H88.625V50.1896Z" fill="#F8312F"/>
<path d="M82.75 46.3125H18.125L12.25 48.9375H82.75V46.3125Z" fill="#F4F4F4"/>
<path d="M76.875 33.1875H88.625V30.5625H76.875V33.1875Z" fill="#E6E6E6"/>
<path d="M76.875 51.5625H6.375V56.8125H76.875V51.5625Z" fill="#CA0B4A"/>
<path d="M88.625 38.4375H76.875V35.8125H88.625V38.4375ZM53.375 56.8125H60.7188C63.1569 56.8125 65.125 55.0537 65.125 52.875C65.125 50.6962 63.1569 48.9375 60.7188 48.9375H53.375V56.8125Z" fill="#F9C23C"/>
<path d="M56.3125 43.6875H59.25V35.8125C57.6344 35.8125 56.3125 36.9937 56.3125 38.4375V43.6875ZM50.4375 48.9375H53.375V56.8125H50.4375V48.9375Z" fill="#636363"/>
<path d="M68.7675 37.818L62.1875 43.6875H76.875L74.29 41.3775C72.6752 39.9335 70.8104 38.7316 68.7675 37.818Z" fill="#E6E6E6"/>
<path d="M35.75 50.25C35.75 52.6867 34.6668 55.0236 32.7387 56.7465C30.8106 58.4695 28.1955 59.4375 25.4688 59.4375C22.742 59.4375 20.1269 58.4695 18.1988 56.7465C16.2707 55.0236 15.1875 52.6867 15.1875 50.25C15.1875 47.8133 16.2707 45.4764 18.1988 43.7535C20.1269 42.0305 22.742 41.0625 25.4688 41.0625C28.1955 41.0625 30.8106 42.0305 32.7387 43.7535C34.6668 45.4764 35.75 47.8133 35.75 50.25ZM88.625 50.25C88.625 52.6867 87.5418 55.0236 85.6137 56.7465C83.6856 58.4695 81.0705 59.4375 78.3438 59.4375C75.617 59.4375 73.0019 58.4695 71.0738 56.7465C69.1457 55.0236 68.0625 52.6867 68.0625 50.25C68.0625 47.8133 69.1457 45.4764 71.0738 43.7535C73.0019 42.0305 75.617 41.0625 78.3438 41.0625C81.0705 41.0625 83.6856 42.0305 85.6137 43.7535C87.5418 45.4764 88.625 47.8133 88.625 50.25Z" fill="#321B41"/>
<path d="M29.875 50.25C29.875 51.2943 29.4108 52.2958 28.5844 53.0342C27.7581 53.7727 26.6374 54.1875 25.4688 54.1875C24.3001 54.1875 23.1794 53.7727 22.3531 53.0342C21.5267 52.2958 21.0625 51.2943 21.0625 50.25C21.0625 49.2057 21.5267 48.2042 22.3531 47.4658C23.1794 46.7273 24.3001 46.3125 25.4688 46.3125C26.6374 46.3125 27.7581 46.7273 28.5844 47.4658C29.4108 48.2042 29.875 49.2057 29.875 50.25ZM82.75 50.25C82.75 51.2943 82.2858 52.2958 81.4594 53.0342C80.6331 53.7727 79.5124 54.1875 78.3438 54.1875C77.1751 54.1875 76.0544 53.7727 75.2281 53.0342C74.4017 52.2958 73.9375 51.2943 73.9375 50.25C73.9375 49.2057 74.4017 48.2042 75.2281 47.4658C76.0544 46.7273 77.1751 46.3125 78.3438 46.3125C79.5124 46.3125 80.6331 46.7273 81.4594 47.4658C82.2858 48.2042 82.75 49.2057 82.75 50.25Z" fill="#F4F4F4"/>
</g>
<defs>
<filter id="filter0_d_9_334" x="-3.5" y="0.5" width="102" height="97" filterUnits="userSpaceOnUse" color-interpolation-filters="sRGB">
<feFlood flood-opacity="0" result="BackgroundImageFix"/>
<feColorMatrix in="SourceAlpha" type="matrix" values="0 0 0 0 0 0 0 0 0 0 0 0 0 0 0 0 0 0 127 0" result="hardAlpha"/>
<feOffset dy="4"/>
<feGaussianBlur stdDeviation="2"/>
<feComposite in2="hardAlpha" operator="out"/>
<feColorMatrix type="matrix" values="0 0 0 0 0 0 0 0 0 0 0 0 0 0 0 0 0 0 1 0"/>
<feBlend mode="normal" in2="BackgroundImageFix" result="effect1_dropShadow_9_334"/>
<feBlend mode="normal" in="SourceGraphic" in2="effect1_dropShadow_9_334" result="shape"/>
</filter>
</defs>
</svg>
