<svg width="91" height="90" viewBox="0 0 91 90" fill="none" xmlns="http://www.w3.org/2000/svg">
<path d="M75.5 76.875H15.5C11.375 76.875 8 73.5 8 69.375V30.1875C8 27.75 9.125 25.5 11.1875 24L45.5 0L79.8125 24C81.875 25.3125 83 27.75 83 30.1875V69.375C83 73.5 79.625 76.875 75.5 76.875Z" fill="#78909C"/>
<path d="M26.75 1.875H64.25V60H26.75V1.875Z" fill="#AED581"/>
<path d="M24.875 0V61.875H66.125V0H24.875ZM62.375 58.125H28.625V3.75H62.375V58.125Z" fill="#558B2F"/>
<path d="M64.25 5.625C64.25 8.8125 63.6875 11.25 60.5 11.25C57.3125 11.25 54.875 8.8125 54.875 5.625C54.875 2.4375 57.3125 1.875 60.5 1.875C63.6875 1.875 64.25 2.4375 64.25 5.625ZM30.5 1.875C33.6875 1.875 36.125 2.4375 36.125 5.625C36.125 8.8125 33.6875 11.25 30.5 11.25C27.3125 11.25 26.75 8.8125 26.75 5.625C26.75 2.4375 27.3125 1.875 30.5 1.875Z" fill="#558B2F"/>
<path d="M45.5 18.75C47.5711 18.75 49.25 17.0711 49.25 15C49.25 12.9289 47.5711 11.25 45.5 11.25C43.4289 11.25 41.75 12.9289 41.75 15C41.75 17.0711 43.4289 18.75 45.5 18.75Z" fill="#558B2F"/>
<path d="M45.5 48.75C51.7132 48.75 56.75 43.7132 56.75 37.5C56.75 31.2868 51.7132 26.25 45.5 26.25C39.2868 26.25 34.25 31.2868 34.25 37.5C34.25 43.7132 39.2868 48.75 45.5 48.75Z" fill="#558B2F"/>
<path d="M75.5 76.875H15.5C11.375 76.875 8 73.5 8 69.375V31.875L45.5 56.25L83 31.875V69.375C83 73.5 79.625 76.875 75.5 76.875Z" fill="#CFD8DC"/>
</svg>
