<svg width="91" height="96" viewBox="0 0 91 96" fill="none" xmlns="http://www.w3.org/2000/svg">
<g filter="url(#filter0_d_9_280)">
<path d="M45.5 87.1875C50.1948 87.1875 54.0008 84.943 54.0008 82.1742C54.0008 79.4055 50.1948 77.1609 45.5 77.1609C40.8051 77.1609 36.9992 79.4055 36.9992 82.1742C36.9992 84.943 40.8051 87.1875 45.5 87.1875Z" fill="#424242"/>
<path d="M45.5 2.8125C30.6781 2.8125 18.6547 13.8305 18.6547 27.4148C18.6547 30.9586 19.7234 34.7484 21.2914 38.0883C23.4922 42.7852 25.8899 46.2586 26.593 47.5383C28.5477 51.0961 28.2664 54.8438 28.8078 57.1922C29.8273 61.5797 32.8789 63.1688 45.493 63.1688C58.107 63.1688 60.8211 61.657 61.9531 57.6141C62.7266 54.8648 61.9742 51.8625 63.9219 48.3117C64.625 47.032 67.4867 42.7922 69.6945 38.0883C71.2625 34.7484 72.3313 30.9586 72.3313 27.4148C72.3453 13.8305 60.3219 2.8125 45.5 2.8125Z" fill="#FFD600"/>
<path d="M45.5 63.6961C54.0198 63.6961 60.9266 62.2921 60.9266 60.5602C60.9266 58.8282 54.0198 57.4242 45.5 57.4242C36.9801 57.4242 30.0734 58.8282 30.0734 60.5602C30.0734 62.2921 36.9801 63.6961 45.5 63.6961Z" fill="#B26500"/>
<path d="M45.5 63.6961C54.0198 63.6961 60.9266 62.2921 60.9266 60.5602C60.9266 58.8282 54.0198 57.4242 45.5 57.4242C36.9801 57.4242 30.0734 58.8282 30.0734 60.5602C30.0734 62.2921 36.9801 63.6961 45.5 63.6961Z" fill="#B26500"/>
<path d="M45.5 62.0086C51.7093 62.0086 56.743 61.3601 56.743 60.5602C56.743 59.7602 51.7093 59.1117 45.5 59.1117C39.2907 59.1117 34.257 59.7602 34.257 60.5602C34.257 61.3601 39.2907 62.0086 45.5 62.0086Z" fill="#FFA000"/>
<path d="M37.9766 39.9164C37.5406 41.0133 36.4086 43.2703 36.9992 44.2828C38.3703 46.6383 41.6398 47.482 41.6398 49.6476C41.6398 52.9523 39.2352 63.6609 39.2352 63.6609M52.5523 39.5226C52.5523 39.5226 54.1273 42.8976 53.4594 44.4094C52.9602 45.5344 49.9578 47.3484 49.5711 47.6508C47.7781 49.057 50.1617 63.668 50.1617 63.668" stroke="#B26500" stroke-width="2" stroke-miterlimit="10"/>
<path d="M37.9766 39.9164C40.3953 35.1351 41.6398 24.2226 38.5672 24.7781C33.3851 25.7133 39.7695 43.643 42.9125 41.5828C46.0555 39.5226 49.9508 24.8133 45.1695 24.757C40.3883 24.7008 45.493 43.5023 48.7414 41.4141C51.3078 39.7617 57.5726 24.7781 52.4258 24.7781C48.0453 24.7781 52.5594 39.5226 52.5594 39.5226" stroke="white" stroke-width="2" stroke-miterlimit="10"/>
<path d="M60.8914 61.2141C60.8914 61.2141 56.8414 63.1687 45.5 63.1687C34.1586 63.1687 30.1086 61.2141 30.1086 61.2141C30.1086 61.2141 29.8555 64.8281 30.6922 66.4664C31.6977 68.4351 32.4711 69.1172 32.4711 69.1172L32.893 71.1211L32.7242 71.6484C32.5063 72.3375 32.6609 73.0969 33.1461 73.6383L33.5117 74.0461L33.9195 75.9726L33.7789 76.3594C33.5117 77.0976 33.6945 77.9203 34.243 78.4828L34.5102 78.757L34.8406 80.332C34.8406 80.332 36.5141 83.9039 45.5 83.9039C54.4859 83.9039 56.1594 80.332 56.1594 80.332L56.1875 80.1984L56.3703 80.0156C56.7359 79.657 56.8555 79.1226 56.6797 78.6445L56.5742 78.3703L57.0102 76.2891L57.7766 75.4805C58.1563 75.0797 58.2406 74.4891 57.9945 73.9969L57.643 73.3008L58.0859 71.2125L58.3672 70.9945C58.782 70.5375 58.7891 69.8484 58.6063 69.3773C58.4656 69.0047 58.5781 68.5828 58.8664 68.3086C59.3094 67.8867 59.8789 67.2469 60.3008 66.4523C61.1656 64.8422 60.8914 61.2141 60.8914 61.2141Z" fill="#82AEC0"/>
<path d="M32.4711 69.1172L32.8508 71.1352C36.943 71.1141 42.4063 71.318 52.8899 69.6516C54.7813 69.2227 57.0523 68.3719 54.5422 68.7234C54.5422 68.7164 44.9164 69.6375 32.4711 69.1172ZM33.8773 75.9867C38.4055 75.9094 47.6586 75.4594 57.6008 73.3008L58.0438 71.2125C47.6445 73.575 37.8641 73.9969 33.4695 74.0531L33.8773 75.9867ZM56.968 76.282C47.7641 78.2789 39.1508 78.7922 34.4891 78.9047L34.7914 80.3391C34.7914 80.3391 34.9391 84.7898 45.4508 84.7898C55.9625 84.7898 56.1102 80.3391 56.1102 80.3391C56.1102 80.3391 51.6242 81.6188 46.1047 80.993C46.0465 80.9934 45.9888 80.9824 45.9349 80.9606C45.881 80.9388 45.8319 80.9065 45.7904 80.8657C45.7067 80.7833 45.6591 80.671 45.6582 80.5535C45.6573 80.436 45.7031 80.323 45.7855 80.2393C45.8679 80.1555 45.9802 80.108 46.0977 80.107C49.3953 79.6711 53.3328 79.0242 56.532 78.3633L56.968 76.282Z" fill="#2F7889"/>
<path d="M30.1578 61.2141C30.1578 61.2141 34.7 63.1687 45.4578 63.1687C56.2156 63.1687 60.8422 61.2141 60.8422 61.2141" stroke="#82AEC0" stroke-width="3.997" stroke-miterlimit="10" stroke-linecap="round"/>
<path d="M35.5719 7.25625C38.3211 6.58125 41.1969 6.91875 43.1656 9.30937C43.7211 9.98437 44.15 10.7859 44.2484 11.6578C44.4453 13.3383 43.4047 14.9273 42.1672 16.0945C38.6375 19.4273 33.6242 21.0445 31.3461 25.643C30.8117 26.7187 30.3898 27.8789 29.5742 28.7578C28.7586 29.6367 27.4016 30.1711 26.3398 29.6086C25.7773 29.3133 25.3906 28.7578 25.0742 28.2023C23.0773 24.6445 23.225 20.1094 24.9828 16.425C26.9164 12.3891 31.1562 8.33906 35.5719 7.25625Z" fill="#FFFF8D"/>
<path d="M33.1602 64.6383C32.5414 64.357 32.7875 63.4289 33.4625 63.4781C35.7266 63.6539 39.5797 63.8719 44.6773 63.8719C50.0492 63.8719 54.7742 63.4711 57.5305 63.1758C58.2125 63.1055 58.4727 64.0406 57.8469 64.3289C55.7234 65.3274 51.8352 66.4664 45.1695 66.4664C38.6656 66.4664 35.0797 65.5031 33.1602 64.6383Z" fill="#FFD600"/>
<path d="M37.0203 71.7398C36.5492 71.9086 36.0641 72.1406 35.825 72.5766C35.7406 72.7383 35.6914 72.9211 35.7266 73.1039C35.7828 73.3711 36.0289 73.5609 36.275 73.6805C36.7672 73.9195 37.3227 73.9828 37.8641 73.9899C38.982 74.0039 40.093 73.793 41.1969 73.582C41.5273 73.5188 41.8648 73.4555 42.1602 73.2938C42.4555 73.132 42.7086 72.8578 42.7578 72.5273C42.8281 72.0844 42.5117 71.6555 42.125 71.4445C40.7891 70.7063 38.3703 71.2547 37.0203 71.7398ZM38.068 76.3734C37.5969 76.5422 37.1117 76.7742 36.8727 77.2102C36.7883 77.3719 36.7391 77.5547 36.7742 77.7375C36.8305 78.0047 37.0766 78.1945 37.3227 78.3141C37.8148 78.5531 38.3703 78.6164 38.9117 78.6234C40.0297 78.6375 41.1406 78.4266 42.2445 78.2156C42.575 78.1523 42.9125 78.0891 43.2078 77.9273C43.5031 77.7656 43.7563 77.4914 43.8055 77.1609C43.8758 76.718 43.5594 76.2891 43.1727 76.0781C41.8367 75.3469 39.4109 75.8953 38.068 76.3734Z" fill="#94D1E0"/>
<path d="M35.6633 59.2031C36.3031 59.2664 36.9781 59.2102 37.5195 58.8656C38.0609 58.5211 38.4055 57.818 38.1875 57.2133C38.075 56.8969 37.8289 56.6438 37.5899 56.4047C37.0625 55.8844 36.5352 55.3641 36.0149 54.8438C35.4313 54.2602 34.8477 53.6836 34.2149 53.1563C33.2375 52.3406 31.9227 51.5742 30.6359 52.1719C29.5391 52.6781 29.2789 53.6766 29.7641 54.7242C30.7977 56.925 33.2024 58.95 35.6633 59.2031Z" fill="#FFFF8D"/>
</g>
<defs>
<filter id="filter0_d_9_280" x="-3.5" y="0" width="98" height="98" filterUnits="userSpaceOnUse" color-interpolation-filters="sRGB">
<feFlood flood-opacity="0" result="BackgroundImageFix"/>
<feColorMatrix in="SourceAlpha" type="matrix" values="0 0 0 0 0 0 0 0 0 0 0 0 0 0 0 0 0 0 127 0" result="hardAlpha"/>
<feOffset dy="4"/>
<feGaussianBlur stdDeviation="2"/>
<feComposite in2="hardAlpha" operator="out"/>
<feColorMatrix type="matrix" values="0 0 0 0 0 0 0 0 0 0 0 0 0 0 0 0 0 0 1 0"/>
<feBlend mode="normal" in2="BackgroundImageFix" result="effect1_dropShadow_9_280"/>
<feBlend mode="normal" in="SourceGraphic" in2="effect1_dropShadow_9_280" result="shape"/>
</filter>
</defs>
</svg>
