<svg width="90" height="91" viewBox="0 0 90 91" fill="none" xmlns="http://www.w3.org/2000/svg">
<g filter="url(#filter0_d_9_331)">
<path d="M13.125 7.5H76.875V82.5H13.125V7.5Z" fill="#BBDEFB"/>
<path d="M24.375 48.75H31.875V56.25H24.375V48.75ZM24.375 33.75H31.875V41.25H24.375V33.75ZM24.375 63.75H31.875V71.25H24.375V63.75ZM24.375 18.75H31.875V26.25H24.375V18.75ZM39.375 48.75H65.625V56.25H39.375V48.75ZM39.375 33.75H65.625V41.25H39.375V33.75ZM39.375 63.75H65.625V71.25H39.375V63.75ZM39.375 18.75H65.625V26.25H39.375V18.75Z" fill="#2196F3"/>
</g>
<defs>
<filter id="filter0_d_9_331" x="-4" y="0" width="98" height="98" filterUnits="userSpaceOnUse" color-interpolation-filters="sRGB">
<feFlood flood-opacity="0" result="BackgroundImageFix"/>
<feColorMatrix in="SourceAlpha" type="matrix" values="0 0 0 0 0 0 0 0 0 0 0 0 0 0 0 0 0 0 127 0" result="hardAlpha"/>
<feOffset dy="4"/>
<feGaussianBlur stdDeviation="2"/>
<feComposite in2="hardAlpha" operator="out"/>
<feColorMatrix type="matrix" values="0 0 0 0 0 0 0 0 0 0 0 0 0 0 0 0 0 0 1 0"/>
<feBlend mode="normal" in2="BackgroundImageFix" result="effect1_dropShadow_9_331"/>
<feBlend mode="normal" in="SourceGraphic" in2="effect1_dropShadow_9_331" result="shape"/>
</filter>
</defs>
</svg>
